<svg xmlns="http://www.w3.org/2000/svg" xml:space="preserve" width="320" height="320"><g style="display:inline;opacity:1"><path d="M56.976 50.795c-.664-.033-1.4.072-2.391.159-5.872.512-6.26 8.027-4.93 12.996-5.612 3.51-18.512 12.14-19.29 13.44-3.48 3.628-3.475 4.055-5.112 5.915-1.131 2.602-.236 4.333-1.293 6.137-2.323 3.962-6.529 5.874-10.373 9.07-2.95 2.451-10.56 7.381-10.56 7.381-.86-.28-2.937.63-2.473 3.64.717 4.662 2.135 3.313 2.14 3.256.29 3.315 4.027 9.712 8.602 9.823.165 1.162-1.732.45-1.696 1.129.15 2.79 4.71 3.257 7.436 3.87 3.323.747 7.748-1.157 10.209-.384 2.462.774 3.689 2.88 5.796 3.847 8.793 4.033 21.045 1.072 27.937 7.86 10.813 10.649 22.266 15.63 31.215 21.926 7.646 5.379 8.003 5.728 1.842 19.612-2.408 5.427-12.426 13.87-15.604 18.783-5.64 8.72-8.722 23.401-13.522 27.304-2.543 2.067-5.974 6.528-9.733 9.819-5.926 5.186-5.945 6.527-6.816 8.737-1.007 2.554-1.919 1.284-3.872 3.995-.295.41 1.491-.033 1.497.538.006.656-1.216 1.442-.744 2.076.29.388 3.123-.745 3.602-.403.412.293-1.2 1.226-.804 1.784 1.635-.617 5.54-2.254 6.15-2.054.767.25-1.586 2.43-.905 2.245 2.092-.567 4.425-2.914 7.687-3.738 5.935-1.499 8.356-2.016 17.519-5.507 4.058-1.547 9.735-7.253 13.16-8.276 2.993-.893 12.43-5.936 18.08-9.825 8.901-6.127 19.01-12.995 26.346-20.481 2.118 2.631 5.686 8.476 6.278 13.121 1.413 11.083 1.056 20.164 2.172 23.735.95 3.044-4.867 3.726-7.444 4.772-3.244 1.317-3.801 3.42-5.762 4.245-.942.396-1.914.67-3.234 1.688-.334.258-2.49 2.466-2.113 3.26 1.093-.51 2.587-2.363 4.412-1.775l-1.904 2.755 4.324-1.606-.869 2.048c.97-.31 2-.599 3.57-.708 14.37 1.72 27.68.923 36.131-1.426 5.116-1.422 3.22-5.836 4.611-8.86 2.703-5.873 5.998-11.647 7.243-17.99 1.333-6.788 1.02-13.852.278-20.753 13.057 6.65 24.708 9.037 35.011 9.103.331 1.891.636 3.775.837 5.654.57 5.3-3.075 11.531-4.532 20.035-.577 3.361-5.469 4.031-8.102 6.175-1.01.822-2.09 2.445-2.952 2.564-1.076.15-3.019.614-3.408 2.248-2.278.834-3.743 2.17-3.304 3.332-.349-.534 3.845-2.416 4.165-.978-.701-.1-3.869 2.01-2.92 2.369 1.363.048 3.947-1.523 4.207-1.139-.23.637-2.488 1.546-2.134 1.97 1.924.783 3.112-.79 5.088-.054 15.394 1.696 9.325.46 15.325.54 8.097.107 11.37-1.541 18.581-2.317 11.39-1.225 18.676-25.877 20.19-32.46.535-2.326.708-4.577.657-6.796 6.258 3.322 12.236 6.32 14.268 12.454 2.968 8.954 6.615 12.904 9.814 18.37 2.48 4.24 3.497 9.783 2.637 14.501-.128.7-1.592 4.059-1.059 4.858.44.657 1.57-1.905 1.847-1.307.578.277-1.36 3.414-.716 3.719.27.907.8-2.113 3.097-2.477 1.031.573-1.156 2.114-.548 3.498.33.75 2.946-3.194 3.688-2.492.71.475-.909 2.561-.514 2.512 3.662-.46 2.752-1.364 6.254-2.473 2.601-.824 5.005-.707 7.354-1.546 5.194-1.855 10.904-8.64 12.662-15.8 1.051-4.28-.778-7.785-.955-11.69-.165-3.637.205-7.381-.102-10.92-.736-8.507-4.766-12.307-6.366-19.935-1.033-4.926-.93-11.02-2.02-16.43-4.84-23.987-9.45-56.213-19.989-70.639-5.082-6.956-9.777-12.755-14.219-17.64-3.19-6.358-7.037-12.329-11.625-17.596-6.302-7.236-16.651-12.793-24.903-14.444-6.162-1.233-17.423-4.368-26.319-4.425-7.65-.05-18.216 3.333-22.682 3.511-12.792.513-20.343-4.8-30.318-7.89-8.891-2.753-16.972-9.02-26.268-9.473-8.18-.397-21.106 7.55-32.06 7.263-7.324-.192-12.176-2.293-21.119-3.508-8.942-1.216-14.522.74-14.522.74-5.504-6.737-6.83-8.068-8.82-8.167" style="display:inline;opacity:1;fill:#765;fill-opacity:1;stroke:none;stroke-width:.580875;stroke-linecap:butt;stroke-linejoin:miter;stroke-dasharray:none;stroke-opacity:1"/></g></svg>