<?xml version="1.0" encoding="UTF-8" standalone="no"?>
<!-- Created with Inkscape (http://www.inkscape.org/) -->

<svg
   width="320"
   height="320"
   viewBox="0 0 320 320"
   version="1.1"
   id="svg1"
   xml:space="preserve"
   inkscape:version="1.3.2 (091e20e, 2023-11-25, custom)"
   sodipodi:docname="higuma-2.svg"
   xmlns:inkscape="http://www.inkscape.org/namespaces/inkscape"
   xmlns:sodipodi="http://sodipodi.sourceforge.net/DTD/sodipodi-0.dtd"
   xmlns="http://www.w3.org/2000/svg"
   xmlns:svg="http://www.w3.org/2000/svg"><sodipodi:namedview
     id="namedview1"
     pagecolor="#ffffff"
     bordercolor="#666666"
     borderopacity="1.0"
     inkscape:showpageshadow="2"
     inkscape:pageopacity="0.0"
     inkscape:pagecheckerboard="0"
     inkscape:deskcolor="#d1d1d1"
     inkscape:document-units="px"
     inkscape:zoom="6.7506189"
     inkscape:cx="134.35805"
     inkscape:cy="162.50362"
     inkscape:window-width="1486"
     inkscape:window-height="992"
     inkscape:window-x="19"
     inkscape:window-y="41"
     inkscape:window-maximized="0"
     inkscape:current-layer="g10" /><defs
     id="defs1" /><g
     inkscape:groupmode="layer"
     id="g4"
     inkscape:label="Bear parts"
     style="display:none;opacity:1"><path
       style="display:inline;fill:#776655;fill-opacity:1;stroke:none;stroke-width:0.580875;stroke-linecap:butt;stroke-linejoin:miter;stroke-dasharray:none;stroke-opacity:1"
       d="m 306.6003,267.83823 c 5.19378,-1.8555 10.903,-8.64023 12.66106,-15.79932 1.05118,-4.28055 -0.77715,-7.78488 -0.95444,-11.69074 -0.16506,-3.63625 0.20527,-7.38156 -0.10108,-10.91954 -0.73672,-8.50786 -4.76711,-12.30717 -6.36656,-19.93469 -1.03303,-4.92633 -0.92919,-11.02153 -2.02039,-16.43072 -4.8391,-23.98778 -9.45124,-56.21348 -19.98953,-70.63918 -30.21609,-41.362311 -47.62826,-44.971599 -70.03,-24.384846 -20.36753,18.717356 -14.46084,33.879656 1.70082,67.503396 7.25169,15.08687 17.74952,25.02594 22.79581,37.75944 6.09761,15.38633 26.3375,14.9637 30.4504,27.37258 2.96775,8.95388 6.61544,12.90573 9.81358,18.3716 2.48085,4.23996 3.49662,9.7819 2.63597,14.4996 -0.12766,0.69986 -1.5916,4.05826 -1.05804,4.85731 0.43914,0.65766 1.56948,-1.90458 1.84636,-1.30639 0.57797,0.27685 -1.35895,3.41294 -0.71484,3.71822 0.27065,0.9075 0.79838,-2.11148 3.09588,-2.47508 1.03137,0.5729 -1.15645,2.11253 -0.5477,3.49678 0.3296,0.74952 2.94611,-3.19364 3.68848,-2.49166 0.71029,0.47496 -0.90894,2.56067 -0.51453,2.51119 3.66211,-0.45944 2.75227,-1.36287 6.2539,-2.47169 2.6009,-0.82361 5.00597,-0.70713 7.35483,-1.54627 z"
       id="path5"
       sodipodi:nodetypes="ssascasssssssscccscssss"
       inkscape:label="Back leg 2" /><path
       style="display:inline;fill:#776655;fill-opacity:1;stroke:none;stroke-width:0.475909;stroke-linecap:butt;stroke-linejoin:miter;stroke-dasharray:none;stroke-opacity:1"
       d="m 217.03702,185.85726 c -3.23199,13.79493 1.34242,25.36096 2.57993,36.87504 0.56968,5.30041 -3.07484,11.53167 -4.53248,20.03581 -0.57613,3.36122 -5.46838,4.02965 -8.1014,6.17291 -1.01094,0.8229 -2.09009,2.44562 -2.952,2.56477 -1.07562,0.14871 -3.01823,0.61435 -3.40753,2.24824 -2.27757,0.83324 -3.74381,2.171 -3.30544,3.33236 -0.34829,-0.53372 3.84707,-2.41724 4.16659,-0.97933 -0.70111,-0.10018 -3.86995,2.01144 -2.92037,2.37033 1.36252,0.0484 3.94638,-1.52317 4.20633,-1.13904 -0.23056,0.63648 -2.48832,1.54564 -2.13454,1.97002 1.92451,0.78274 3.11178,-0.79102 5.0883,-0.0547 15.39335,1.69589 9.32476,0.4595 15.32448,0.53906 8.09776,0.10741 11.37112,-1.53931 18.58157,-2.31497 11.39006,-1.22529 18.67549,-25.87811 20.19007,-32.46064 2.68834,-11.68384 -3.49107,-21.53971 -3.70576,-34.39076 -0.1927,-11.53331 7.68857,-19.02465 9.61661,-26.70201 10.42623,-41.5167 4.0862,-63.24145 -22.34722,-65.111518 -4.44122,-0.314186 -15.21235,2.281868 -20.44357,18.178108 -5.01967,15.25341 4.01823,26.51757 0.98718,39.45485 z"
       id="path6"
       sodipodi:nodetypes="sssascccccccsssssssss"
       inkscape:label="Back leg 1" /><path
       style="display:inline;fill:#776655;fill-opacity:1;stroke:none;stroke-width:0.475909;stroke-linecap:butt;stroke-linejoin:miter;stroke-dasharray:none;stroke-opacity:1"
       d="m 134.58415,204.06666 c 0.79609,-0.14666 6.9746,8.28046 7.77017,14.52289 1.4125,11.08312 1.05584,20.16339 2.17184,23.7348 0.95102,3.04342 -4.86747,3.72696 -7.44438,4.77317 -3.24409,1.31708 -3.80092,3.42069 -5.76163,4.24527 -0.94243,0.39635 -1.91376,0.66954 -3.23399,1.68764 -0.3344,0.25789 -2.48959,2.46693 -2.11198,3.26023 1.09237,-0.51062 2.58474,-2.36371 4.40998,-1.77502 l -1.90334,2.75362 4.32345,-1.6057 -0.86797,2.04848 c 0.96982,-0.3096 2.00067,-0.59887 3.57063,-0.70842 14.36907,1.71963 27.67827,0.92321 36.13002,-1.42587 5.11618,-1.42197 3.22025,-5.83586 4.61239,-8.86061 2.70243,-5.87172 5.9964,-11.64563 7.24179,-17.98828 1.44069,-7.3373 0.98517,-15.00554 0.11304,-22.43191 C 182.11131,193.58491 174.52,168.98876 174.52,168.98876 166.13599,144.94569 168.27122,145.83149 160.52807,127.55532 141.1355,81.782986 120.37861,58.133683 97.994133,62.561399 70.63041,67.974025 90.438622,103.46759 96.160841,125.65892 c 2.940567,11.40384 12.356619,22.2017 17.924679,33.43516 7.38349,14.89607 15.19707,29.8391 20.49863,44.97258 z"
       id="path4"
       sodipodi:nodetypes="asssssccccccsaaacssaaa"
       inkscape:label="Foreleg 2" /><path
       style="display:inline;fill:#776655;fill-opacity:1;stroke:none;stroke-width:0.475909;stroke-linecap:butt;stroke-linejoin:miter;stroke-dasharray:none;stroke-opacity:1"
       d="m 106.04679,132.25231 c -2.85977,19.21672 -4.46117,34.72207 -12.012168,48.21975 -2.898476,5.18121 -12.425567,13.8694 -15.603335,18.78245 -5.639393,8.71891 -8.721576,23.40184 -13.522188,27.30401 -2.542805,2.06693 -5.972887,6.52796 -9.732521,9.81844 -5.925954,5.18647 -5.945894,6.52853 -6.817142,8.73875 -1.006951,2.55448 -1.918847,1.2827 -3.871755,3.99377 -0.295446,0.41017 1.491786,-0.0329 1.497128,0.53774 0.0061,0.65661 -1.215368,1.44242 -0.743279,2.07574 0.289464,0.38833 3.123062,-0.74399 3.602458,-0.40194 0.411565,0.29363 -1.200448,1.22555 -0.805265,1.78296 1.635422,-0.61724 5.541473,-2.25223 6.151983,-2.05245 0.766384,0.25077 -1.58733,2.42885 -0.906713,2.24416 2.092492,-0.56782 4.424899,-2.91424 7.687011,-3.73792 5.934938,-1.49858 8.355672,-2.01617 17.518316,-5.50743 4.058287,-1.54634 9.735251,-7.25184 13.160654,-8.2747 2.992269,-0.89352 12.430136,-5.93573 18.080096,-9.8247 11.66088,-8.02641 25.42993,-17.31813 32.26405,-27.61568 7.61992,-11.48159 12.31578,-17.23652 24.58276,-51.977 8.21655,-23.26957 9.21406,-61.119891 -12.76431,-67.256288 -22.94254,-6.405599 -39.14506,27.727438 -47.76578,53.150358 z"
       id="path2"
       sodipodi:nodetypes="cssssssssscsssssassacc"
       inkscape:label="Foreleg 1" /><path
       style="display:inline;fill:#776655;fill-opacity:1;stroke:none;stroke-width:0.477139;stroke-linecap:butt;stroke-linejoin:miter;stroke-dasharray:none;stroke-opacity:1"
       d="m 276.4316,197.36302 c 5.17525,-6.25682 11.85098,-36.8861 9.85447,-55.60313 -2.08428,-19.53981 -9.39409,-39.7533 -22.30051,-54.571278 -6.30258,-7.236047 -16.65073,-12.79314 -24.90197,-14.444322 -6.16218,-1.233135 -17.42299,-4.367722 -26.31894,-4.42549 -7.65062,-0.04967 -18.21619,3.332896 -22.6821,3.511701 -12.79214,0.512173 -20.34301,-4.801449 -30.31836,-7.890837 -8.89122,-2.753626 -16.9714,-9.018877 -26.26826,-9.471257 -8.17898,-0.397985 -21.10562,7.548355 -32.0588,7.261219 -7.324452,-0.192017 -12.176408,-2.292489 -21.11894,-3.508119 -8.942529,-1.215626 -14.523764,0.739865 -14.523764,0.739865 -7.339128,-8.981413 -7.246443,-8.354181 -11.210357,-8.008266 -5.872456,0.512465 -6.258384,8.028266 -4.929126,12.997287 -5.612211,3.510224 -18.512558,12.139222 -19.290759,13.439075 -3.480007,3.627282 -3.472947,4.055455 -5.110239,5.915065 -1.131278,2.602125 -0.237213,4.333298 -1.2943,6.137048 -2.322334,3.962703 -6.5289,5.874027 -10.37331,9.06977 -2.949283,2.451659 -10.5595458,7.381939 -10.5595458,7.381939 -0.8601577,-0.28004 -2.9360286,0.62872 -2.47242872,3.64006 0.71754172,4.66084 2.13410062,3.31346 2.13887032,3.2563 0.2902345,3.31487 4.0271713,9.71165 8.6025162,9.82238 0.165202,1.16196 -1.7325049,0.45061 -1.6960939,1.12875 0.1498242,2.79041 4.7099059,3.25763 7.4362889,3.87057 3.322409,0.74693 7.748632,-1.15787 10.208776,-0.38434 2.462015,0.77411 3.688855,2.87975 5.7966,3.84664 8.792875,4.03356 21.044138,1.07331 27.936686,7.86132 22.708983,22.36458 44.450066,26.27831 60.144626,35.34051 11.08567,6.40097 21.75831,13.53343 33.08371,19.5 7.97719,4.20263 -1.25435,-2.98709 24.50572,11.45202 28.25505,16.35058 50.32099,12.82398 66.45767,7.09833 13.33701,-4.73226 22.23017,-4.04359 31.26187,-14.96281 z"
       id="path1"
       sodipodi:nodetypes="saasasasszcscccascsccaasassacss"
       inkscape:label="Body" /></g><g
     inkscape:groupmode="layer"
     id="g10"
     inkscape:label="Bear"
     style="display:inline;opacity:1"><path
       id="path3"
       style="display:inline;opacity:1;fill:#776655;fill-opacity:1;stroke:none;stroke-width:0.580875;stroke-linecap:butt;stroke-linejoin:miter;stroke-dasharray:none;stroke-opacity:1"
       inkscape:label="Bear"
       d="m 56.975687,50.795388 c -0.66341,-0.03294 -1.39972,0.07197 -2.390698,0.158475 -5.872452,0.512465 -6.259338,8.027221 -4.93008,12.996239 -5.612207,3.51022 -18.511718,12.140486 -19.289919,13.440339 -3.480003,3.627278 -3.474733,4.054531 -5.112024,5.914142 -1.131276,2.602121 -0.23608,4.333418 -1.293168,6.137165 -2.322332,3.962698 -6.528326,5.874042 -10.372732,9.069785 -2.949281,2.451647 -10.5605455,7.381427 -10.5605455,7.381427 -0.8601568,-0.28004 -2.93646516,0.62948 -2.47286573,3.64082 0.71754103,4.66083 2.13551123,3.31258 2.14028093,3.25542 0.2902341,3.31486 4.0268677,9.71225 8.6022073,9.82299 0.165203,1.16196 -1.7325927,0.45069 -1.6961817,1.12883 0.1498241,2.79041 4.7098247,3.25679 7.4362047,3.86972 3.322406,0.74694 7.748255,-1.15698 10.208396,-0.38345 2.462013,0.77412 3.689014,2.87936 5.796758,3.84625 8.792866,4.03357 21.044583,1.07273 27.937123,7.86074 10.812255,10.64827 22.265373,15.63007 31.214218,21.92549 7.646098,5.37895 8.003469,5.72863 1.842752,19.61239 -2.407963,5.42657 -12.426331,13.87017 -15.604095,18.78322 -5.639386,8.7189 -8.721898,23.40108 -13.522507,27.30325 -2.542801,2.06692 -5.973364,6.5286 -9.732994,9.81908 -5.92595,5.18646 -5.944785,6.52698 -6.816033,8.7372 -1.00695,2.55447 -1.918771,1.28386 -3.871679,3.99493 -0.295446,0.41017 1.49129,-0.0326 1.496632,0.538 0.0061,0.65662 -1.215512,1.44241 -0.743423,2.07572 0.289465,0.38833 3.122302,-0.74506 3.601697,-0.40301 0.411565,0.29363 -1.199255,1.22681 -0.804072,1.78422 1.635418,-0.61724 5.540352,-2.25399 6.150862,-2.0542 0.766381,0.25077 -1.586421,2.43062 -0.905804,2.24592 2.092488,-0.56782 4.424513,-2.91496 7.686621,-3.73864 5.93493,-1.49857 8.356759,-2.01596 17.519391,-5.50721 4.058284,-1.54634 9.735179,-7.25264 13.160578,-8.2755 2.992266,-0.89351 12.428963,-5.93598 18.078913,-9.82494 8.90161,-6.12714 19.01077,-12.99495 26.34659,-20.48136 2.11753,2.63151 5.68599,8.47612 6.27802,13.12145 1.4125,11.0831 1.05559,20.16342 2.17159,23.73482 0.95101,3.04342 -4.86713,3.72541 -7.44403,4.77161 -3.24409,1.31708 -3.80084,3.42076 -5.76154,4.24535 -0.94243,0.39634 -1.91367,0.67026 -3.2339,1.68836 -0.33441,0.25789 -2.49051,2.46602 -2.11289,3.25933 1.09236,-0.51063 2.5864,-2.36313 4.41163,-1.77444 l -1.90355,2.75458 4.3236,-1.60618 -0.86864,2.04833 c 0.96982,-0.30961 2.00044,-0.59866 3.5704,-0.70821 14.36906,1.71963 27.6787,0.92287 36.13045,-1.42621 5.11616,-1.42197 3.21906,-5.83569 4.61119,-8.86045 2.70243,-5.8717 5.99713,-11.64628 7.24252,-17.98892 1.33287,-6.78817 1.0193,-13.85219 0.27781,-20.75329 13.05675,6.65025 24.70869,9.03727 35.01139,9.10304 0.33126,1.89116 0.63539,3.775 0.83734,5.65394 0.56967,5.3004 -3.0753,11.53117 -4.53294,20.0353 -0.57613,3.36121 -5.46836,4.03108 -8.10137,6.17434 -1.01094,0.82289 -2.09028,2.44566 -2.95218,2.56481 -1.07563,0.14871 -3.01871,0.61399 -3.40802,2.24789 -2.27757,0.83324 -3.7427,2.17035 -3.30433,3.33171 -0.34829,-0.53372 3.84561,-2.41609 4.16514,-0.97819 -0.70111,-0.10017 -3.86851,2.01029 -2.91892,2.36918 1.36251,0.0484 3.94627,-1.52274 4.20622,-1.13861 -0.23056,0.63648 -2.4882,1.5457 -2.13442,1.97007 1.92452,0.78275 3.11204,-0.79113 5.08855,-0.0548 15.39334,1.69589 9.32462,0.46039 15.32434,0.53996 8.09774,0.10741 11.37126,-1.54069 18.58171,-2.31635 11.39004,-1.22529 18.67527,-25.87776 20.18985,-32.46028 0.53514,-2.32581 0.70798,-4.57748 0.65734,-6.79647 6.25744,3.3221 12.23505,6.3211 14.26789,12.45432 2.96774,8.95388 6.61507,12.90456 9.81321,18.37042 2.48084,4.23996 3.49785,9.78301 2.6372,14.5007 -0.12766,0.69986 -1.59196,4.05864 -1.0584,4.8577 0.43914,0.65765 1.56994,-1.90506 1.84682,-1.30687 0.57797,0.27686 -1.36015,3.4138 -0.71603,3.71908 0.27064,0.9075 0.79945,-2.11319 3.09695,-2.47677 1.03137,0.57289 -1.15654,2.11375 -0.54779,3.498 0.32959,0.74952 2.94541,-3.19441 3.68778,-2.49243 0.71029,0.47496 -0.90894,2.56148 -0.51453,2.512 3.6621,-0.45945 2.75292,-1.36404 6.25455,-2.47287 2.60089,-0.8236 5.00518,-0.7064 7.35404,-1.54554 5.19377,-1.8555 10.90363,-8.64065 12.66169,-15.79973 1.05118,-4.28055 -0.77742,-7.78549 -0.95471,-11.69134 -0.16506,-3.63625 0.20462,-7.38058 -0.10173,-10.91856 -0.73672,-8.50786 -4.76661,-12.30801 -6.36606,-19.93552 -1.03303,-4.92633 -0.92974,-11.02051 -2.02095,-16.4297 -4.83909,-23.98776 -9.45006,-56.21336 -19.98834,-70.63905 -5.08165,-6.95619 -9.77697,-12.75559 -14.21898,-17.64069 -3.1901,-6.358074 -7.0371,-12.328492 -11.62482,-17.595689 -6.30257,-7.23604 -16.65155,-12.792784 -24.90277,-14.443962 -6.16218,-1.233135 -17.42325,-4.367567 -26.3192,-4.425335 -7.65061,-0.04967 -18.21638,3.3329 -22.68228,3.511705 -12.79213,0.512173 -20.3427,-4.8007 -30.31804,-7.890087 -8.89121,-2.753623 -16.97148,-9.020418 -26.26833,-9.472795 -8.17897,-0.397985 -21.10604,7.549223 -32.05922,7.262087 C 94.111962,61.537586 89.259794,59.43744 80.31727,58.22181 71.374749,57.006188 65.795051,58.961322 65.795051,58.961322 60.290713,52.225269 58.965916,50.894051 56.975687,50.795388 Z"
       sodipodi:nodetypes="sscccsscsccsssssssssssscsscsssssscsssssccccccsssccsssscccccccssscsssscccscssssssssscsssssssscs" /></g></svg>
